<?xml version="1.0" encoding="utf-8"?>
<svg version="1.0" xmlns="http://www.w3.org/2000/svg" width="5097.000000pt" height="1125.000000pt" viewBox="0 0 5097.000000 1125.000000" preserveAspectRatio="xMidYMid meet">
  <g transform="matrix(0.44906, 0, 0, -0.377249, -43.05246, 4217.21875)" fill="#000000" stroke="none" style="">
    <path d="M280 11063 c-40 -11 -49 -45 -53 -207 -5 -174 1 -215 40 -246 25 -19 39 -20 340 -20 l315 0 35 35 34 34 -3 182 -3 181 -28 24 -28 24 -317 -1 c-174 -1 -324 -3 -332 -6z m636 -48 c24 -15 24 -18 24 -177 0 -136 -3 -164 -17 -180 -15 -17 -38 -18 -319 -18 -302 0 -303 0 -318 22 -13 18 -16 53 -16 173 1 151 6 175 40 187 8 2 143 6 298 7 244 2 287 0 308 -14z"/>
    <path d="M369 10901 c-40 -41 -41 -98 0 -143 24 -27 36 -33 70 -32 47 2 69 16 87 61 43 101 -80 190 -157 114z m103 -38 c22 -20 23 -51 1 -75 -21 -24 -44 -23 -71 2 -26 25 -27 38 -6 68 18 26 50 28 76 5z"/>
    <path d="M595 10901 c-3 -5 2 -17 11 -25 22 -22 235 -23 254 -1 6 8 9 19 5 25 -8 13 -261 14 -270 1z"/>
    <path d="M603 10793 c-18 -7 -16 -30 3 -37 24 -9 237 -7 253 3 8 5 11 16 8 25 -5 14 -25 16 -129 15 -68 0 -129 -3 -135 -6z"/>
    <path d="M2020 10972 c-56 -28 -61 -46 -58 -245 l3 -179 33 -29 c31 -28 36 -29 132 -29 55 0 100 -4 100 -9 0 -10 -183 -191 -206 -204 -8 -5 -122 -10 -253 -12 -223 -4 -240 -3 -256 14 -9 11 -15 27 -13 36 2 10 -3 20 -9 22 -7 3 -13 -3 -13 -14 0 -10 -7 -27 -16 -38 -13 -18 -28 -20 -157 -21 -78 -1 -181 -5 -229 -9 l-88 -6 -130 126 c-109 107 -133 125 -145 115 -8 -7 -15 -15 -15 -18 0 -3 56 -62 125 -131 l124 -126 3 -70 3 -70 390 -3 c214 -1 393 -6 397 -10 5 -5 -41 -54 -102 -110 l-110 -102 -168 0 c-215 -1 -206 5 -209 -140 l-1 -109 -38 -33 c-205 -177 -204 -176 -204 -265 l0 -76 -114 -115 -113 -115 -156 2 c-182 2 -217 -3 -252 -35 l-25 -23 0 -211 c0 -126 4 -219 10 -231 25 -45 51 -49 356 -49 l287 0 33 36 34 35 0 195 c0 258 -8 274 -134 274 -36 0 -67 3 -69 8 -3 4 31 45 74 91 69 72 82 82 102 75 12 -4 129 -10 260 -11 176 -3 239 -7 242 -16 2 -7 6 -24 9 -39 11 -51 46 -29 46 28 l0 24 258 0 257 0 101 -106 c95 -100 124 -118 124 -78 0 9 -47 66 -105 127 l-105 112 0 67 c0 42 -5 70 -12 75 -7 4 -193 10 -413 13 l-400 5 40 40 c22 22 76 73 120 113 l80 72 162 0 c154 0 163 1 182 22 27 28 35 75 27 154 l-7 65 88 82 c159 149 143 126 143 212 0 42 4 84 9 94 5 9 53 59 107 111 53 52 110 110 127 128 l30 32 173 0 c171 0 173 0 203 26 45 37 53 80 49 245 -5 234 4 229 -395 229 -254 0 -292 -2 -323 -18z m647 -54 c22 -21 23 -28 23 -174 0 -147 -1 -154 -24 -181 l-24 -28 -296 0 c-373 0 -341 -19 -341 204 0 142 2 161 19 180 19 20 27 21 319 21 295 0 301 0 324 -22z m-679 -703 c8 -3 12 -27 12 -71 0 -75 9 -63 -160 -217 l-85 -77 -62 0 c-34 0 -65 5 -68 10 -4 6 26 41 66 78 40 37 90 83 111 103 21 19 38 43 38 52 0 17 -28 18 -407 17 -225 -1 -414 -1 -421 -1 -9 1 -12 16 -10 54 l3 52 205 5 c230 6 758 2 778 -5z m-224 -431 c11 -28 6 -120 -6 -132 -9 -9 -84 -12 -278 -12 -194 0 -269 3 -278 12 -15 15 -16 102 -2 129 10 18 24 19 284 19 241 0 275 -2 280 -16z m-409 -203 c3 -6 -1 -13 -9 -18 -28 -16 -236 -217 -236 -229 0 -7 7 -15 16 -18 9 -3 202 -6 429 -6 367 0 414 -2 419 -16 10 -26 7 -69 -6 -82 -9 -9 -133 -12 -497 -12 -268 0 -491 4 -498 8 -7 5 -13 35 -14 76 l-2 69 64 61 c35 34 93 87 128 119 l63 57 68 0 c38 0 71 -4 75 -9z m-457 -647 c21 -15 22 -20 22 -206 0 -164 -2 -194 -17 -210 -15 -17 -37 -18 -293 -18 -223 0 -280 3 -296 14 -17 13 -19 30 -22 204 -3 186 -3 191 19 211 22 20 33 21 294 21 229 0 274 -2 293 -16z"/>
    <path d="M2167 10764 c-15 -16 -7 -53 14 -59 30 -10 58 19 43 43 -12 18 -45 28 -57 16z"/>
    <path d="M2320 10755 c-18 -22 -1 -50 31 -50 20 0 24 5 24 30 0 23 -5 31 -21 33 -11 2 -27 -4 -34 -13z"/>
    <path d="M2475 10760 c-4 -6 -4 -22 -1 -36 5 -20 12 -25 34 -22 23 2 27 8 27 33 0 25 -4 31 -27 33 -14 2 -29 -2 -33 -8z"/>
    <path d="M1356 9731 c-15 -23 25 -32 135 -29 93 2 114 6 114 18 0 12 -21 15 -122 18 -67 1 -124 -2 -127 -7z"/>
    <path d="M544 8846 c-74 -33 -98 -142 -45 -207 84 -101 241 -46 241 84 0 105 -97 166 -196 123z m125 -62 c31 -39 28 -89 -8 -125 -18 -17 -40 -29 -56 -29 -16 0 -38 12 -56 29 -60 60 -24 151 60 151 31 0 44 -6 60 -26z"/>
    <path d="M1107 10883 c-4 -3 -7 -12 -7 -19 0 -10 41 -13 170 -16 139 -2 173 -6 180 -18 5 -8 10 -83 10 -165 0 -152 6 -180 36 -168 11 4 14 39 14 170 l0 165 -29 29 -29 29 -170 0 c-93 0 -172 -3 -175 -7z"/>
    <path d="M3290 10374 c-183 -44 -318 -188 -365 -389 -21 -91 -21 -258 0 -350 44 -185 158 -308 339 -360 45 -13 86 -16 180 -13 109 4 127 7 186 34 121 57 224 180 232 279 l3 39 -53 9 c-61 10 -85 -3 -97 -51 -4 -15 -23 -46 -42 -70 -69 -84 -154 -117 -281 -110 -94 5 -152 30 -215 93 -57 55 -86 119 -105 228 -21 118 -6 247 38 339 35 72 50 91 105 134 58 44 120 64 202 64 128 0 235 -59 282 -156 31 -64 45 -74 107 -74 66 0 79 14 60 66 -56 158 -168 256 -329 290 -82 17 -173 17 -247 -2z"/>
    <path d="M5585 10369 c-4 -6 -7 -91 -6 -188 2 -216 -5 -244 -50 -187 -53 67 -187 107 -287 85 -112 -24 -184 -82 -235 -189 -32 -64 -32 -67 -32 -215 0 -149 0 -151 32 -217 60 -124 161 -191 288 -192 97 -1 153 17 214 71 29 25 55 43 58 39 4 -4 9 -25 12 -49 l6 -42 65 0 65 0 0 545 0 545 -62 3 c-38 2 -64 -1 -68 -9z m-174 -416 c47 -9 121 -86 142 -148 40 -115 13 -282 -57 -358 -83 -90 -234 -87 -311 7 -54 67 -67 107 -67 216 1 115 18 167 76 228 54 57 122 74 217 55z"/>
    <path d="M6234 10076 c-78 -19 -117 -41 -168 -93 -60 -61 -96 -138 -108 -232 -23 -185 32 -343 147 -423 154 -106 412 -80 513 50 34 44 56 97 47 111 -3 6 -32 11 -65 11 -56 0 -59 -1 -79 -35 -28 -47 -107 -85 -178 -85 -123 0 -215 75 -237 193 -12 66 -17 65 288 60 240 -4 274 -2 286 12 17 21 6 159 -18 219 -38 98 -111 170 -204 203 -59 21 -162 25 -224 9z m150 -117 c48 -10 63 -19 96 -57 39 -44 66 -111 56 -138 -4 -10 -48 -14 -206 -16 -110 -2 -205 -1 -210 0 -15 5 -12 60 6 98 22 45 88 99 139 112 54 14 54 14 119 1z"/>
    <path d="M7250 10076 c-69 -15 -107 -35 -143 -75 -36 -41 -47 -39 -47 9 0 48 -21 62 -88 58 l-47 -3 -5 -379 c-3 -252 -2 -384 5 -393 8 -10 28 -13 70 -11 l60 3 5 260 c5 257 5 261 31 305 14 25 45 59 68 75 38 27 51 30 115 30 65 0 77 -3 110 -29 71 -54 76 -77 76 -371 0 -152 4 -265 10 -271 5 -5 37 -7 72 -4 l63 5 0 295 c-1 276 -2 298 -22 340 -43 95 -101 139 -208 159 -32 6 -61 11 -64 10 -3 0 -31 -6 -61 -13z"/>
    <path d="M4319 10071 c-91 -19 -156 -67 -196 -144 -19 -38 -22 -52 -12 -63 14 -18 104 -19 118 -1 6 6 22 26 36 44 30 37 76 53 150 53 111 0 158 -32 175 -121 9 -44 8 -56 -4 -64 -8 -6 -63 -17 -123 -24 -228 -27 -317 -62 -370 -142 -23 -35 -27 -52 -27 -113 -1 -105 39 -167 134 -208 112 -48 264 -26 350 51 24 22 48 37 52 35 5 -3 8 -20 6 -38 -1 -17 2 -37 6 -44 9 -16 108 -16 124 0 15 15 16 413 2 543 -14 118 -51 176 -140 217 -49 22 -213 34 -281 19z m272 -433 c3 -38 -3 -107 -12 -134 -21 -67 -118 -124 -212 -124 -89 0 -145 39 -153 107 -6 44 10 78 48 106 51 38 327 75 329 45z"/>
    <path d="M8895 10071 c-80 -15 -151 -66 -187 -134 -10 -21 -18 -48 -16 -60 3 -19 10 -22 52 -25 47 -3 51 -1 97 46 50 51 78 62 164 62 62 0 111 -18 139 -50 28 -34 44 -113 27 -133 -6 -8 -55 -19 -113 -27 -142 -17 -263 -47 -307 -74 -154 -97 -137 -315 29 -389 32 -14 68 -20 125 -20 96 -1 162 19 224 68 24 19 47 35 52 35 4 0 9 -19 11 -42 l3 -43 65 0 65 0 0 300 c0 284 -1 302 -21 345 -48 102 -121 142 -269 146 -55 1 -118 -1 -140 -5z m283 -468 c7 -94 -44 -171 -136 -207 -95 -36 -210 -8 -238 59 -23 56 -6 104 50 141 35 22 199 53 271 51 l50 -2 3 -42z"/>
    <path d="M7850 10061 c-11 -7 -15 -25 -15 -58 l0 -48 215 -5 c118 -3 214 -9 214 -14 -1 -4 -39 -54 -85 -110 -46 -55 -102 -123 -123 -151 -22 -27 -42 -52 -45 -55 -10 -8 -85 -101 -144 -179 -58 -75 -69 -110 -47 -152 10 -18 24 -19 324 -19 259 0 316 2 325 14 7 8 11 36 9 63 l-3 48 -223 3 c-256 3 -260 4 -196 75 22 23 53 60 69 81 17 22 55 69 85 105 30 36 73 89 95 116 22 28 47 59 57 70 93 112 89 104 86 164 l-3 56 -290 2 c-159 2 -297 -2 -305 -6z"/>
    <path d="M7321 9031 c-11 -11 -23 -36 -26 -55 -5 -22 -14 -38 -26 -41 -24 -8 -24 -22 1 -35 17 -9 20 -23 22 -123 3 -104 4 -112 23 -112 19 0 20 8 25 115 l5 115 28 3 c15 2 27 9 27 17 0 8 -12 15 -27 17 -24 2 -28 8 -28 33 0 21 7 33 25 42 33 16 32 37 -2 41 -17 2 -34 -4 -47 -17z"/>
    <path d="M7455 9038 c-3 -8 -4 -94 -3 -193 3 -163 5 -180 21 -183 16 -3 17 9 15 189 -2 143 -6 193 -15 197 -7 2 -15 -2 -18 -10z"/>
    <path d="M10977 9043 c-4 -3 -7 -91 -7 -195 0 -175 1 -189 18 -186 15 3 17 21 20 184 2 143 0 184 -11 193 -8 6 -17 8 -20 4z"/>
    <path d="M3625 9027 c-37 -17 -62 -45 -65 -72 -8 -73 21 -103 120 -129 98 -25 124 -63 75 -111 -19 -20 -35 -25 -71 -25 -41 0 -51 5 -80 36 -54 57 -78 21 -25 -38 28 -32 32 -33 106 -33 76 0 77 0 111 37 39 43 42 67 14 113 -22 35 -49 50 -116 65 -88 20 -113 54 -76 100 14 18 30 23 66 24 43 1 51 -3 77 -34 22 -26 32 -31 41 -22 16 16 -3 56 -37 78 -34 22 -103 28 -140 11z"/>
    <path d="M4922 8853 c3 -180 4 -188 23 -188 19 0 20 6 18 185 -2 179 -3 185 -23 188 -20 3 -20 1 -18 -185z"/>
    <path d="M7004 9027 c-2 -7 -3 -91 -2 -187 3 -157 5 -175 21 -178 14 -3 17 4 17 35 0 36 22 83 39 83 4 0 27 -27 51 -60 39 -54 65 -71 83 -54 3 4 -16 36 -44 72 -27 36 -49 72 -49 81 0 10 18 35 40 56 44 43 49 55 21 55 -10 0 -41 -25 -68 -55 -28 -30 -55 -55 -62 -55 -7 0 -11 35 -11 110 0 92 -2 110 -15 110 -9 0 -18 -6 -21 -13z"/>
    <path d="M6000 9012 c0 -10 4 -32 9 -48 5 -16 17 -58 26 -94 10 -36 23 -85 31 -110 7 -25 16 -57 19 -72 4 -21 11 -28 28 -28 24 0 23 -1 73 159 8 25 14 52 14 60 0 9 5 23 10 31 9 13 11 13 20 0 9 -15 50 -140 67 -210 6 -25 15 -36 31 -38 27 -4 29 1 76 182 39 147 44 186 22 186 -17 0 -30 -38 -62 -173 -12 -54 -25 -101 -28 -104 -9 -10 -29 49 -76 226 -18 70 -50 67 -73 -6 -17 -56 -44 -156 -52 -196 -11 -56 -32 -10 -74 168 -15 67 -22 81 -40 83 -15 3 -21 -2 -21 -16z"/>
    <path d="M8517 9024 c-4 -4 -7 -13 -7 -21 0 -10 22 -13 94 -13 52 0 97 -3 100 -8 2 -4 -23 -43 -56 -87 -67 -90 -129 -181 -140 -207 -12 -28 13 -33 144 -28 148 6 160 23 21 30 -57 3 -98 9 -100 16 -2 6 25 50 59 97 117 161 133 185 133 204 0 16 -11 18 -121 21 -66 1 -123 -1 -127 -4z"/>
    <path d="M9765 9018 c-3 -8 -4 -90 -3 -183 3 -152 5 -170 21 -173 15 -3 17 5 17 66 0 105 -3 102 106 102 109 0 116 -6 114 -93 -1 -29 -1 -58 -1 -64 1 -19 38 -16 45 3 3 9 3 92 0 185 -7 154 -9 169 -25 169 -16 0 -19 -11 -21 -77 l-3 -78 -105 0 -105 0 -5 74 c-3 47 -10 76 -17 79 -7 2 -15 -3 -18 -10z"/>
    <path d="M3970 8932 c-98 -16 -131 -191 -47 -252 43 -32 111 -33 155 -2 17 13 32 28 32 33 0 20 -30 20 -56 0 -36 -29 -77 -27 -109 5 -44 44 -31 59 55 62 106 3 120 7 120 38 0 76 -69 130 -150 116z m77 -54 c13 -12 23 -30 23 -40 0 -15 -9 -18 -60 -18 -33 0 -63 -1 -67 -2 -19 -7 -13 36 8 58 28 30 66 31 96 2z"/>
    <path d="M4560 8928 c-14 -5 -40 -7 -57 -3 -18 3 -33 2 -33 -2 -3 -81 -1 -256 3 -260 4 -3 13 -3 20 0 11 4 16 31 19 101 3 74 8 99 22 115 26 29 60 26 86 -6 18 -23 21 -38 18 -115 -2 -92 1 -104 27 -95 12 5 15 24 15 95 0 75 3 93 21 116 23 30 60 34 80 9 9 -10 16 -53 19 -117 5 -93 7 -101 25 -101 18 0 20 8 23 80 4 99 -3 135 -29 163 -24 27 -99 31 -119 7 -15 -19 -29 -19 -49 -1 -23 19 -62 26 -91 14z"/>
    <path d="M5405 8932 c-40 -5 -75 -39 -75 -73 0 -35 45 -74 97 -83 21 -3 47 -13 57 -21 16 -12 18 -19 8 -40 -9 -20 -19 -25 -50 -25 -25 0 -49 8 -66 21 -26 20 -46 19 -46 -4 1 -26 54 -51 107 -51 56 0 88 19 104 62 17 44 -23 82 -102 96 -20 3 -44 14 -52 24 -15 16 -15 20 -1 40 16 23 77 31 89 12 3 -5 15 -15 26 -20 15 -8 21 -7 25 4 13 34 -54 66 -121 58z"/>
    <path d="M6573 8933 c-32 -6 -81 -67 -89 -109 -21 -113 83 -205 180 -159 91 44 103 185 21 247 -24 18 -78 28 -112 21z m86 -54 c29 -24 40 -109 19 -149 -27 -51 -101 -52 -131 -1 -28 47 -23 107 12 142 34 34 66 36 100 8z"/>
    <path d="M7643 8929 c-40 -12 -82 -65 -90 -113 -7 -47 19 -115 54 -141 19 -13 44 -19 80 -19 59 0 87 18 109 71 51 119 -38 236 -153 202z m92 -54 c21 -22 25 -35 25 -85 0 -51 -3 -61 -26 -79 -36 -28 -75 -27 -104 4 -20 21 -24 37 -24 81 0 48 3 58 28 79 37 32 68 32 101 0z"/>
    <path d="M9225 8932 c-11 -2 -25 -8 -32 -14 -7 -6 -14 -5 -18 2 -3 5 -13 10 -21 10 -11 0 -14 -24 -14 -136 0 -124 2 -135 18 -132 14 3 18 18 22 100 5 105 21 138 66 138 13 0 25 4 29 9 8 13 -25 29 -50 23z"/>
    <path d="M9393 8931 c-60 -17 -101 -95 -87 -168 4 -20 22 -53 40 -72 29 -33 37 -36 83 -35 61 1 92 25 117 89 39 103 -53 216 -153 186z m87 -56 c20 -21 24 -37 24 -80 0 -43 -4 -59 -24 -80 -31 -33 -71 -33 -105 0 -36 37 -36 118 0 158 33 35 73 36 105 2z"/>
    <path d="M10481 8931 c-13 -3 -33 -18 -44 -33 -39 -52 -1 -107 84 -122 20 -3 44 -15 54 -26 17 -19 17 -21 0 -40 -25 -27 -78 -26 -104 1 -12 13 -26 19 -35 16 -22 -9 -20 -20 9 -47 21 -20 36 -24 81 -24 58 1 89 19 105 62 17 44 -14 74 -99 96 -52 13 -73 37 -56 64 17 26 62 27 96 2 22 -16 33 -19 41 -11 8 8 5 18 -13 35 -27 26 -81 38 -119 27z"/>
    <path d="M4213 8913 c-13 -8 -23 -21 -23 -29 0 -24 20 -26 46 -5 49 39 114 19 114 -34 0 -26 -22 -35 -86 -35 -78 0 -122 -76 -74 -128 28 -30 79 -37 125 -18 26 11 42 13 49 6 5 -5 16 -10 23 -10 10 0 13 26 13 107 0 102 -1 108 -27 135 -23 24 -34 28 -82 27 -34 0 -65 -6 -78 -16z m145 -150 c7 -22 -53 -73 -85 -73 -50 0 -70 41 -37 75 20 19 115 17 122 -2z"/>
    <path d="M5084 8912 c-55 -46 -70 -140 -34 -200 38 -61 132 -78 188 -32 30 25 30 54 0 44 -12 -3 -28 -13 -36 -20 -22 -22 -70 -17 -98 11 -46 46 -31 59 71 65 l90 5 3 39 c3 32 -2 44 -29 72 -29 30 -39 34 -83 34 -34 -1 -58 -7 -72 -18z m116 -32 c11 -11 20 -29 20 -40 0 -18 -7 -20 -65 -20 -62 0 -65 1 -65 24 0 50 73 73 110 36z"/>
    <path d="M5627 8902 c-15 -15 -27 -38 -27 -49 0 -29 51 -70 97 -78 21 -3 47 -13 57 -20 16 -12 18 -19 8 -40 -9 -20 -19 -25 -50 -25 -26 0 -45 7 -57 20 -10 11 -24 20 -31 20 -25 0 -26 -23 -1 -47 50 -50 176 -29 191 32 3 13 3 30 0 39 -8 22 -62 52 -105 60 -49 9 -66 29 -51 61 15 32 69 35 95 5 20 -24 35 -26 43 -5 11 28 -34 55 -91 55 -43 0 -55 -4 -78 -28z"/>
    <path d="M6803 8914 c-2 -5 -2 -64 -1 -130 3 -111 4 -119 23 -119 18 0 20 8 25 98 4 83 8 101 24 113 11 8 27 14 37 14 19 0 44 26 32 33 -16 10 -135 2 -140 -9z"/>
    <path d="M7850 8918 c0 -7 6 -30 14 -53 8 -22 22 -67 31 -100 27 -92 33 -105 52 -105 18 0 32 30 53 109 5 19 18 43 29 54 l20 20 6 -29 c19 -92 44 -149 64 -152 12 -2 23 3 25 10 2 7 18 57 35 110 36 113 40 151 14 146 -11 -2 -22 -21 -31 -53 -7 -28 -17 -61 -20 -75 -11 -36 -40 -38 -48 -3 -16 71 -42 128 -59 128 -10 0 -21 -7 -25 -15 -14 -28 -32 -85 -40 -123 -4 -21 -10 -40 -13 -43 -7 -8 -30 47 -46 111 -7 27 -17 55 -23 62 -13 16 -38 17 -38 1z"/>
    <path d="M8865 8900 c-25 -27 -30 -40 -33 -99 -4 -67 -3 -70 31 -107 32 -36 39 -38 90 -38 45 0 61 4 82 24 14 13 25 29 25 37 0 20 -35 16 -55 -7 -27 -30 -75 -26 -109 9 -45 47 -31 61 63 61 44 0 86 3 95 6 31 12 17 73 -27 122 -17 18 -31 22 -77 22 -50 0 -60 -4 -85 -30z m135 -24 c37 -40 21 -56 -55 -56 -59 0 -65 2 -65 21 0 27 38 58 71 59 14 0 35 -10 49 -24z"/>
    <path d="M10173 8913 c-13 -8 -23 -21 -23 -29 0 -24 20 -26 46 -5 33 26 76 27 98 2 36 -40 7 -68 -72 -70 -102 -3 -129 -123 -33 -152 32 -9 44 -8 75 6 30 14 39 15 52 5 31 -26 40 6 34 116 -6 129 -17 144 -99 143 -34 0 -65 -6 -78 -16z m137 -153 c0 -27 -50 -70 -82 -70 -27 0 -58 23 -58 42 0 29 34 48 87 48 46 0 53 -3 53 -20z"/>
    <path d="M10723 8913 c-18 -12 -23 -25 -23 -57 1 -48 23 -69 84 -79 22 -4 48 -15 58 -24 16 -17 17 -20 2 -41 -20 -29 -77 -30 -101 -2 -10 11 -23 20 -29 20 -23 0 -22 -28 2 -51 35 -32 124 -32 158 0 60 57 27 116 -75 135 -20 3 -44 14 -52 24 -15 16 -15 20 -1 40 19 28 63 29 97 2 14 -11 28 -20 31 -20 13 0 5 38 -12 53 -24 22 -109 22 -139 0z"/>
    <path d="M11118 8905 c-34 -32 -42 -59 -36 -136 4 -50 9 -64 32 -84 40 -34 97 -41 144 -17 22 11 38 27 40 40 4 27 -8 28 -41 2 -35 -28 -80 -26 -112 5 -14 14 -25 35 -25 45 0 18 7 20 88 20 48 0 93 4 101 9 21 14 4 79 -29 113 -24 24 -36 28 -82 28 -43 0 -58 -5 -80 -25z m132 -29 c35 -38 21 -54 -50 -58 -75 -4 -93 13 -59 56 27 35 77 35 109 2z"/>
    <path d="M1454 8875 c-3 -14 -4 -100 -2 -191 4 -163 5 -165 31 -192 l27 -27 183 0 c175 0 182 1 182 20 0 19 -8 20 -171 23 -149 2 -173 5 -187 20 -14 15 -17 49 -19 192 -3 156 -5 175 -20 178 -12 2 -19 -5 -24 -23z"/>
    <path d="M2033 8839 c-31 -12 -55 -63 -51 -112 2 -35 7 -43 26 -45 20 -3 22 1 22 45 0 27 5 54 12 61 9 9 88 12 295 12 l283 0 16 -25 c13 -20 14 -28 4 -40 -11 -13 -52 -15 -273 -15 -252 1 -298 -4 -271 -29 11 -11 564 -18 582 -8 7 5 12 29 12 57 0 37 -6 56 -24 77 l-24 28 -294 1 c-161 1 -303 -2 -315 -7z"/>
    <path d="M8265 8687 c-9 -35 -2 -90 12 -94 13 -5 21 19 25 77 4 43 -27 57 -37 17z"/>
    <path d="M1986 8584 c-3 -9 -6 -58 -6 -109 0 -177 -1 -177 371 -173 l281 3 29 33 c28 31 29 36 29 135 0 103 -8 131 -36 120 -11 -4 -14 -31 -14 -114 0 -108 0 -110 -26 -119 -33 -13 -525 -13 -559 0 -25 10 -26 11 -23 97 l3 88 260 5 c143 3 261 7 263 8 1 1 2 11 2 22 0 20 -7 20 -284 20 -250 0 -285 -2 -290 -16z"/>
    <path d="M2100 8465 c0 -26 37 -35 142 -35 72 0 110 4 123 13 38 28 7 37 -131 37 -111 0 -134 -3 -134 -15z"/>
  </g>
</svg>